	<svg
			width="54"
			height="54"
			viewBox="0 0 56 56"
			fill="none"
			xmlns="http://www.w3.org/2000/svg"
		>
			<g clipPath="url(#clip0_775_82248)">
				<rect width="56" height="56" fill="#232529"></rect>
				<g opacity="0.4" clipPath="url(#clip1_775_82248)">
					<path
						d="M56 19H0"
						stroke="#313337"
						strokeWidth="0.7"
						strokeMiterlimit="10"
						strokeDasharray="1.6 1.6"
					></path>
					<path
						d="M56 37H0"
						stroke="#313337"
						strokeWidth="0.7"
						strokeMiterlimit="10"
						strokeDasharray="1.6 1.6"
					></path>
					<path
						d="M28 9.53674e-07L28 56"
						stroke="#313337"
						strokeWidth="0.7"
						strokeMiterlimit="10"
						strokeDasharray="1.6 1.6"
					></path>
					<path
						d="M48 -0.00012207V55.9999"
						stroke="#313337"
						strokeWidth="0.7"
						strokeMiterlimit="10"
					></path>
					<path
						d="M8 -0.00012207V55.9999"
						stroke="#313337"
						strokeWidth="0.7"
						strokeMiterlimit="10"
					></path>
					<path
						d="M0.0014658 7.99988H56.0015"
						stroke="#313337"
						strokeWidth="0.7"
						strokeMiterlimit="10"
					></path>
					<path
						d="M0.0014658 47.9999H56.0015"
						stroke="#313337"
						strokeWidth="0.7"
						strokeMiterlimit="10"
					></path>
				</g>
				<path
					d="M18.6765 24.1069L27.4489 19.6326C27.7957 19.4558 28.2044 19.4558 28.5511 19.6326L37.3235 24.1069C37.7382 24.3184 38 24.7493 38 25.2205V33.7795C38 34.2507 37.7382 34.6816 37.3235 34.8931L28.5511 39.3674C28.2043 39.5442 27.7956 39.5442 27.4489 39.3674L18.6765 34.8931C18.2618 34.6816 18 34.2507 18 33.7795V25.2205C18 24.7493 18.2618 24.3184 18.6765 24.1069Z"
					fill="#232529"
					stroke="#86888D"
					strokeLinecap="round"
					strokeLinejoin="round"
				></path>
				<g opacity="0.6">
					<path
						d="M27.957 39.1363V29.3887"
						stroke="#5C5E63"
						strokeWidth="0.7"
						strokeLinecap="round"
						strokeLinejoin="round"
					></path>
				</g>
				<path
					d="M28.2182 16.6058C28.0804 16.539 27.9196 16.539 27.7818 16.6058L12.96 23.7931C12.5786 23.978 12.5859 24.5237 12.972 24.6985L27.7938 31.4067C27.9249 31.466 28.0751 31.466 28.2062 31.4067L43.028 24.6985C43.4141 24.5237 43.4214 23.978 43.04 23.7931L28.2182 16.6058Z"
					fill="#232529"
					stroke="#86888D"
					strokeLinecap="round"
					strokeLinejoin="round"
				></path>
				<g opacity="0.6">
					<path
						d="M27 25L21 28.1288V32.1752"
						stroke="#5C5E63"
						strokeWidth="0.7"
						strokeLinecap="round"
						strokeLinejoin="round"
					></path>
					<path
						d="M27.9095 24.912C29.0784 24.912 30.026 24.5959 30.026 24.206C30.026 23.8161 29.0784 23.5 27.9095 23.5C26.7406 23.5 25.793 23.8161 25.793 24.206C25.793 24.5959 26.7406 24.912 27.9095 24.912Z"
						stroke="#5C5E63"
						strokeWidth="0.7"
						strokeLinecap="round"
						strokeLinejoin="round"
					></path>
				</g>
			</g>
			<defs>
				<clipPath id="clip0_775_82248">
					<rect width="56" height="56" fill="white"></rect>
				</clipPath>
				<clipPath id="clip1_775_82248">
					<rect width="56" height="56" fill="white"></rect>
				</clipPath>
			</defs>
		</svg>