<svg xmlns="http://www.w3.org/2000/svg" width="40" height="40" fill="none" class="sc-bpNxwV dnNzQz"><g stroke="#DBA600" stroke-width="0.5" opacity="0.4"><path d="M10 0v40M30 0v40M40 9H0M40 31H0M40 20H0"></path></g><path fill="#fff" stroke="#AD7C00" stroke-miterlimit="10" stroke-width="0.5" d="M16.125 17.109v3.522c0 .537.38 1.197.846 1.465l5.919 3.418a1.691 1.691 0 0 0 1.691 0l5.92-3.418c.523-.302.845-.86.845-1.465V17.11c0-.604-.322-1.163-.845-1.465l-5.92-3.417a1.691 1.691 0 0 0-1.691 0l-5.92 3.417c-.523.302-.845.86-.845 1.465Z"></path><path stroke="#AD7C00" stroke-linejoin="round" stroke-width="0.5" d="m24.802 20.293 4.435-2.56a.492.492 0 0 1 .738.426v2.066a.847.847 0 0 1-.423.733l-4.436 2.56a.492.492 0 0 1-.738-.425v-2.067c0-.302.162-.582.424-.733Z" opacity="0.7"></path><path fill="#fff" stroke="#AD7C00" stroke-miterlimit="10" stroke-width="0.5" d="M9 21.713v3.745c0 .332.235.74.523.905l3.658 2.112c.324.187.722.187 1.046 0l3.658-2.112c.324-.187.523-.532.523-.905v-3.745c0-.374-.2-.719-.523-.905l-3.658-2.113a1.045 1.045 0 0 0-1.046 0l-3.658 2.113a1.045 1.045 0 0 0-.523.905Z"></path></svg>