<svg xmlns="http://www.w3.org/2000/svg" width="40" height="40" fill="none" class="sc-tHutA jExeaQ"><g stroke="#1C4797" stroke-width="0.5" opacity="0.2"><path d="M10 0v40M30 0v40M40 9H0M40 31H0M40 20H0"></path></g><path fill="#fff" stroke="#245BC2" stroke-miterlimit="10" stroke-width="0.5" d="M16.125 16.109v7.485c0 .537.38 1.196.846 1.464l5.919 3.418a1.691 1.691 0 0 0 1.691 0l5.92-3.418c.523-.302.845-.86.845-1.464v-7.485c0-.604-.322-1.163-.845-1.465l-5.92-3.417a1.691 1.691 0 0 0-1.691 0l-5.92 3.417c-.523.302-.845.86-.845 1.465Z"></path><path stroke="#245BC2" stroke-linejoin="round" stroke-width="0.5" d="m24.802 19.293 4.435-2.56a.492.492 0 0 1 .738.426v6.028a.847.847 0 0 1-.423.734l-4.436 2.56a.492.492 0 0 1-.738-.426v-6.029c0-.302.162-.582.424-.733Z" opacity="0.7"></path><path fill="#fff" stroke="#245BC2" stroke-miterlimit="10" stroke-width="0.5" d="M9 22.516v3.745c0 .332.235.74.523.905l3.658 2.113c.324.186.722.186 1.046 0l3.658-2.113c.324-.186.523-.532.523-.905v-3.745c0-.374-.2-.719-.523-.905l-3.658-2.113a1.045 1.045 0 0 0-1.046 0l-3.658 2.113a1.045 1.045 0 0 0-.523.905Z"></path></svg>