<svg width="212" height="112" viewBox="0 0 220 112" fill="none" version="1.1" id="svg54" xmlns="http://www.w3.org/2000/svg"><g><rect x="16" y="16" width="221" height="128" rx="14" fill="#232529" stroke="#313337" id="rect1"></rect><rect x="18" y="18" width="221" height="128" rx="12" fill="#1B1D21" stroke="#313337" id="rect2"></rect><mask id="path-5-inside-1_1863_291953" fill="#1B1D21"><path d="m 18.5,36.9 c 0,-6.4406 0,-9.6609 1.2534,-12.1209 1.1026,-2.1639 2.8618,-3.9231 5.0257,-5.0257 C 27.2391,18.5 30.4594,18.5 36.9,18.5 h 32.6 v 128 H 36.9 c -6.4406,0 -9.6609,0 -12.1209,-1.253 -2.1639,-1.103 -3.9231,-2.862 -5.0257,-5.026 C 18.5,137.761 18.5,134.541 18.5,128.1 Z" id="path2"></path></mask><path d="m 18.5,36.9 c 0,-6.4406 0,-9.6609 1.2534,-12.1209 1.1026,-2.1639 2.8618,-3.9231 5.0257,-5.0257 C 27.2391,18.5 30.4594,18.5 36.9,18.5 h 32.6 v 128 H 36.9 c -6.4406,0 -9.6609,0 -12.1209,-1.253 -2.1639,-1.103 -3.9231,-2.862 -5.0257,-5.026 C 18.5,137.761 18.5,134.541 18.5,128.1 Z" fill="#232529" id="path3"></path><path d="m 18.5,18.5 h 51 z m 51,128 h -51 z m -51,0 v -128 z m 52,-128 v 128 h -2 v -128 z" fill="#313337" mask="url(#path-5-inside-1_1863_291953)" id="path4"></path><path d="m 29.805,29.0915 -0.5638,-0.9024 c 0,0 -0.0021,-0.0038 -0.0034,-0.0055 l -0.0445,-0.0709 c -0.0839,-0.1346 -0.229,-0.2152 -0.3876,-0.2156 l -0.9083,-0.0029 -0.0634,0.1015 -1.0853,1.7369 -0.06,0.0961 0.4547,0.7266 c 0.084,0.1351 0.2291,0.2157 0.389,0.2157 h 1.2728 c 0.157,0 0.3055,-0.0827 0.3885,-0.2153 l 0.0449,-0.0717 c 0,0 0.0017,-0.0021 0.0021,-0.0029 l 0.5647,-0.9037 c 0.0928,-0.1477 0.0928,-0.3386 0,-0.4859 z m -0.172,0.378 -0.5647,0.9037 c -0.0025,0.0042 -0.0055,0.0076 -0.008,0.0109 -0.0197,0.0223 -0.0453,0.0252 -0.0566,0.0252 -0.013,0 -0.0449,-0.0038 -0.0655,-0.0365 l -0.5647,-0.9037 c -0.0063,-0.01 -0.0117,-0.0205 -0.0167,-0.0319 -0.0051,-0.0109 -0.0089,-0.0218 -0.0122,-0.0331 -0.0126,-0.0453 -0.0126,-0.094 0,-0.1393 0.0063,-0.0222 0.0159,-0.0445 0.0285,-0.0646 l 0.5639,-0.9029 c 0,0 8e-4,-0.0012 0.0012,-0.0021 0.0135,-0.0201 0.0303,-0.0293 0.0449,-0.0323 0.0059,-0.0016 0.0109,-0.0021 0.0151,-0.0029 0.0021,0 0.0042,0 0.0063,0 0.013,0 0.0453,0.0042 0.0655,0.0369 l 0.5638,0.9025 c 0.0516,0.0822 0.0516,0.1879 0,0.2701 z" fill="#45474A" id="path5"></path><path d="m 28.1364,26.9079 c 0.0923,-0.1481 0.0923,-0.3385 0,-0.4858 l -0.5638,-0.9024 -0.047,-0.076 c -0.0844,-0.1346 -0.2295,-0.2152 -0.3889,-0.2152 h -1.2729 c -0.159,0 -0.3042,0.0806 -0.3889,0.2157 l -2.2794,3.6479 c -0.0457,0.073 -0.0705,0.1573 -0.0705,0.2429 0,0.0856 0.0243,0.1699 0.0701,0.2425 l 0.6112,0.9788 c 0.0844,0.1351 0.2295,0.2152 0.3885,0.2152 h 1.2729 c 0.1599,0 0.305,-0.0805 0.3889,-0.2156 l 0.0466,-0.0739 c 0,0 0,0 0,-8e-4 0,0 8e-4,-0.0013 8e-4,-0.0017 l 0.4544,-0.7266 1.3467,-2.1552 0.4305,-0.6893 z m -0.133,-0.2429 c 0,0.0466 -0.013,0.0936 -0.0394,0.1351 l -2.2328,3.5737 c -0.0201,0.0323 -0.0524,0.0361 -0.0655,0.0361 -0.013,0 -0.0448,-0.0038 -0.0654,-0.0361 L 25.036,29.4697 c -0.0512,-0.0818 -0.0512,-0.1871 0,-0.2698 l 2.2328,-3.5728 c 0.0202,-0.0327 0.0525,-0.0365 0.0655,-0.0365 0.013,0 0.0453,0.0038 0.0658,0.0369 l 0.5639,0.9024 c 0.0264,0.0416 0.0394,0.0886 0.0394,0.1351 z" fill="#45474A" id="path6"></path><rect x="32" y="26" width="16" height="4" rx="2" fill="#313337" id="rect6"></rect><rect x="76" y="26" width="24" height="4" rx="2" fill="#313337" id="rect7"></rect><rect x="184" y="61" width="22" height="4" rx="2" fill="#313337" id="rect8"></rect><rect x="76.5" y="75" width="20" height="4" rx="2" fill="#313337" id="rect9"></rect><rect x="184" y="75" width="28" height="4" rx="2" fill="#313337" id="rect10"></rect><rect x="76.5" y="89" width="14" height="4" rx="2" fill="#313337" id="rect11"></rect><rect x="184" y="89" width="22" height="4" rx="2" fill="#313337" id="rect12"></rect><rect x="76.5" y="103" width="20" height="4" rx="2" fill="#313337" id="rect13"></rect><rect x="184" y="103" width="28" height="4" rx="2" fill="#313337" id="rect14"></rect><rect x="205" y="26" width="14" height="4" rx="2" fill="#313337" id="rect15"></rect><rect x="32" y="45" width="21" height="4" rx="2" fill="#313337" id="rect16"></rect><rect x="24" y="45" width="6" height="4" rx="2" fill="#313337" id="rect17"></rect><rect x="32" y="56" width="27" height="4" rx="2" fill="#313337" id="rect18"></rect><rect x="24" y="56" width="6" height="4" rx="2" fill="#313337" id="rect19"></rect><rect x="32" y="67" width="25" height="4" rx="2" fill="#313337" id="rect20"></rect><rect x="24" y="67" width="6" height="4" rx="2" fill="#313337" id="rect21"></rect><rect x="32" y="78" width="30" height="4" rx="2" fill="#313337" id="rect22"></rect><rect x="24" y="78" width="6" height="4" rx="2" fill="#313337" id="rect23"></rect><rect x="32" y="89" width="21" height="4" rx="2" fill="#313337" id="rect24"></rect><rect x="24" y="89" width="6" height="4" rx="2" fill="#313337" id="rect25"></rect><rect x="32" y="100" width="25" height="4" rx="2" fill="#313337" id="rect26"></rect><rect x="24" y="100" width="6" height="4" rx="2" fill="#313337" id="rect27"></rect><rect x="32" y="111" width="23" height="4" rx="2" fill="#313337" id="rect28"></rect><rect x="24" y="111" width="6" height="4" rx="2" fill="#313337" id="rect29"></rect><path d="M 18,38 H 222" stroke="#313337" id="path29"></path><path d="M 76,56 H 223" stroke="#313337" id="path30"></path><path d="M 76,70 H 223" stroke="#313337" id="path31"></path><path d="M 76,84 H 223" stroke="#313337" id="path32"></path><path d="M 76,98 H 223" stroke="#313337" id="path33"></path><path d="M 76,112 H 223" stroke="#313337" id="path34"></path><path d="m 104,56 v 72" stroke="#313337" id="path35"></path><path d="m 138,56 v 72" stroke="#313337" id="path36"></path><path d="m 178,56 v 72" stroke="#313337" id="path37"></path><g opacity="0.6" id="g39"><path d="M 69,55.6 V 56 h 4 V 55.6 C 73,55.0399 73,54.7599 72.891,54.546 72.7951,54.3578 72.6422,54.2049 72.454,54.109 72.2401,54 71.9601,54 71.4,54 h -0.8 c -0.5601,0 -0.8401,0 -1.054,0.109 -0.1882,0.0959 -0.3411,0.2488 -0.437,0.437 C 69,54.7599 69,55.0399 69,55.6 Z" fill="#266DF0" stroke="#266DF0" id="path38"></path><path d="M 69,68.4 V 56 h 33.4 c 0.56,0 0.84,0 1.054,0.109 0.188,0.0959 0.341,0.2488 0.437,0.437 C 104,56.7599 104,57.0399 104,57.6 v 10.8 c 0,0.5601 0,0.8401 -0.109,1.054 -0.096,0.1882 -0.249,0.3411 -0.437,0.437 C 103.24,70 102.96,70 102.4,70 H 70.6 C 70.0399,70 69.7599,70 69.546,69.891 69.3578,69.7951 69.2049,69.6422 69.109,69.454 69,69.2401 69,68.9601 69,68.4 Z" fill="#293C60" stroke="#266DF0" id="path39"></path><rect x="74" y="61" width="19" height="4" rx="2" fill="#266DF0" id="rect39"></rect></g><rect x="143" y="61" width="17" height="4" rx="2" fill="#313337" id="rect40"></rect><rect x="109" y="61" width="17" height="4" rx="2" fill="#313337" id="rect41"></rect><rect x="143" y="103" width="22" height="4" rx="2" fill="#313337" id="rect42"></rect><rect x="143" y="89" width="25" height="4" rx="2" fill="#313337" id="rect43"></rect><rect x="143" y="75" width="28" height="4" rx="2" fill="#313337" id="rect44"></rect><rect x="109" y="103" width="19" height="4" rx="2" fill="#313337" id="rect45"></rect><rect x="109" y="89" width="17" height="4" rx="2" fill="#313337" id="rect46"></rect><rect x="109" y="75" width="15" height="4" rx="2" fill="#313337" id="rect47"></rect><rect x="76" y="45" width="20" height="4" rx="2" fill="#313337" id="rect48"></rect><rect x="100" y="45" width="20" height="4" rx="2" fill="#313337" id="rect49"></rect><rect x="204" y="45" width="15" height="4" rx="2" fill="#313337" id="rect50"></rect><rect x="185" y="45" width="15" height="4" rx="2" fill="#313337" id="rect51"></rect><rect x="124" y="45" width="20" height="4" rx="2" fill="#313337" id="rect52"></rect></g></svg>